<svg id="Layer_1" data-name="Layer 1" xmlns="http://www.w3.org/2000/svg" width="118.51" height="48.3576" viewBox="0 0 118.51 48.3576"><defs><style>.cls-1{fill:#11fbfb;}.cls-2{fill:#fff;}</style></defs><path class="cls-1" d="M12.26,26.2308a.7857.7857,0,0,0-1.1111-.0014l-.0014.0014-9.4279,9.428a.7852.7852,0,0,0-.2294.5562V47.2143A.7857.7857,0,0,0,2.2756,48h7.071a.7857.7857,0,0,0,.7857-.7857V40.929h3.1426v6.2853A.7857.7857,0,0,0,14.0606,48h7.071a.7857.7857,0,0,0,.7856-.7857V36.215a.7852.7852,0,0,0-.2294-.5562L19.56,33.5328V28.3584a.7857.7857,0,0,0-.7856-.7857H17.2032a.7857.7857,0,0,0-.7856.7857V30.39ZM3.0613,46.4287V36.54l8.6423-8.6423L20.3459,36.54v9.8884h-5.5V40.1434a.7857.7857,0,0,0-.7857-.7857H9.3466a.7857.7857,0,0,0-.7857.7857v6.2853Z" transform="translate(-1.49)"/><path class="cls-1" d="M24,32.3962a2.8977,2.8977,0,0,1,2.9587-2.9587H44.7109A2.8977,2.8977,0,0,1,47.67,32.3962v8.8761a2.8977,2.8977,0,0,1-2.9587,2.9587H38.7935a5.1411,5.1411,0,0,0,.37,2.219h1.11a.74.74,0,0,1,0,1.4794H31.3968a.74.74,0,0,1,0-1.4794h1.11a5.1411,5.1411,0,0,0,.37-2.219H26.9587A2.8977,2.8977,0,0,1,24,41.2723Zm2.0681-1.2648a1.1206,1.1206,0,0,0-.3757.4467,2.1587,2.1587,0,0,0-.213.8329v8.8613a1.544,1.544,0,0,0,.2145.8906,1.1174,1.1174,0,0,0,.4467.3757,2.1658,2.1658,0,0,0,.7959.2116l.037.0015H44.7109a1.5439,1.5439,0,0,0,.8906-.2146,1.1206,1.1206,0,0,0,.3757-.4467,2.1658,2.1658,0,0,0,.2116-.7959l.0015-.037V32.3962a1.5449,1.5449,0,0,0-.2145-.8906,1.12,1.12,0,0,0-.4468-.3757,2.1587,2.1587,0,0,0-.8329-.213H26.9587A1.544,1.544,0,0,0,26.0681,31.1314Z" transform="translate(-1.49)"/><g id="Layer_3" data-name="Layer 3"><path class="cls-1" d="M48.1652,32.3962a2.8977,2.8977,0,0,1,2.9587-2.9587H68.8761a2.8977,2.8977,0,0,1,2.9587,2.9587v8.8761a2.8977,2.8977,0,0,1-2.9587,2.9587H62.9587a5.1411,5.1411,0,0,0,.37,2.219h1.11a.74.74,0,0,1,0,1.4794H55.5619a.74.74,0,0,1,0-1.4794h1.11a5.1411,5.1411,0,0,0,.37-2.219H51.1239a2.8977,2.8977,0,0,1-2.9587-2.9587Zm2.0681-1.2648a1.1206,1.1206,0,0,0-.3757.4467,2.1606,2.1606,0,0,0-.2131.8329v8.8613a1.5439,1.5439,0,0,0,.2146.8906,1.1174,1.1174,0,0,0,.4467.3757,2.1658,2.1658,0,0,0,.7959.2116l.037.0015H68.8761a1.5439,1.5439,0,0,0,.8906-.2146,1.1206,1.1206,0,0,0,.3757-.4467,2.1658,2.1658,0,0,0,.2116-.7959l.0015-.037V32.3962a1.5439,1.5439,0,0,0-.2146-.8906,1.1191,1.1191,0,0,0-.4467-.3757,2.1587,2.1587,0,0,0-.8329-.213H51.1239A1.544,1.544,0,0,0,50.2333,31.1314Z" transform="translate(-1.49)"/><path class="cls-1" d="M80.85,29.38A4.38,4.38,0,1,1,76.47,25,4.38,4.38,0,0,1,80.85,29.38Zm-7.2992,0a2.92,2.92,0,1,0,2.92-2.92A2.92,2.92,0,0,0,73.5508,29.38Z" transform="translate(-1.49)"/><path class="cls-1" d="M85.23,33.7591h.73a2.92,2.92,0,0,1,2.8948,2.5372l4.54-2.0175a1.46,1.46,0,0,1,2.054,1.3328V46.505a1.46,1.46,0,0,1-2.0526,1.3328L88.8543,45.82A2.92,2.92,0,0,1,85.96,48.3576H75.0106a2.92,2.92,0,0,1-2.92-2.92V36.6788a2.92,2.92,0,0,1,2.92-2.92Zm8.7591,12.7444v-10.89l-5.11,2.27v6.35l5.11,2.2715ZM73.5508,36.6788v8.7591a1.46,1.46,0,0,0,1.46,1.46H85.96a1.46,1.46,0,0,0,1.46-1.46V36.6788a1.46,1.46,0,0,0-1.46-1.46H75.0106A1.46,1.46,0,0,0,73.5508,36.6788Z" transform="translate(-1.49)"/><path class="cls-1" d="M85.23,33.7591a4.38,4.38,0,1,0-4.38-4.38A4.38,4.38,0,0,0,85.23,33.7591Zm-2.92-4.38a2.92,2.92,0,1,1,2.92,2.92A2.92,2.92,0,0,1,82.31,29.38Z" transform="translate(-1.49)"/><path class="cls-1" d="M105.003,35.0661a2.25,2.25,0,1,1-2.25-2.25A2.25,2.25,0,0,1,105.003,35.0661Z" transform="translate(-1.49)"/><path class="cls-1" d="M98.25,29.8161a2.25,2.25,0,0,0-2.25,2.25v13.5a2.25,2.25,0,0,0,2.25,2.25h19.5a2.25,2.25,0,0,0,2.25-2.25v-13.5a2.25,2.25,0,0,0-2.25-2.25Zm19.5,1.5a.75.75,0,0,1,.75.75v9l-5.6625-2.92a.75.75,0,0,0-.8655.1395l-5.565,5.565-3.99-2.658a.75.75,0,0,0-.945.093l-3.969,3.531v.81q-.0027-.03-.003-.06v-13.5a.75.75,0,0,1,.75-.75Z" transform="translate(-1.49)"/></g><g id="Layer_4" data-name="Layer 4"><path class="cls-2" d="M12.26,1.2308a.7857.7857,0,0,0-1.1111-.0014l-.0014.0014-9.4279,9.428a.7852.7852,0,0,0-.2294.5562V22.2143A.7857.7857,0,0,0,2.2756,23h7.071a.7857.7857,0,0,0,.7857-.7857V15.929h3.1426v6.2853A.7857.7857,0,0,0,14.0606,23h7.071a.7857.7857,0,0,0,.7856-.7857V11.215a.7852.7852,0,0,0-.2294-.5562L19.56,8.5328V3.3584a.7857.7857,0,0,0-.7856-.7857H17.2032a.7857.7857,0,0,0-.7856.7857V5.39ZM3.0613,21.4287V11.54L11.7036,2.898,20.3459,11.54v9.8884h-5.5V15.1434a.7857.7857,0,0,0-.7857-.7857H9.3466a.7857.7857,0,0,0-.7857.7857v6.2853Z" transform="translate(-1.49)"/><path class="cls-2" d="M24,7.3962a2.8977,2.8977,0,0,1,2.9587-2.9587H44.7109A2.8977,2.8977,0,0,1,47.67,7.3962v8.8761a2.8977,2.8977,0,0,1-2.9587,2.9587H38.7935a5.1411,5.1411,0,0,0,.37,2.219h1.11a.74.74,0,0,1,0,1.4794H31.3968a.74.74,0,0,1,0-1.4794h1.11a5.1411,5.1411,0,0,0,.37-2.219H26.9587A2.8977,2.8977,0,0,1,24,16.2723Zm2.0681-1.2648a1.1206,1.1206,0,0,0-.3757.4467,2.1587,2.1587,0,0,0-.213.8329v8.8613a1.544,1.544,0,0,0,.2145.8906,1.1174,1.1174,0,0,0,.4467.3757,2.1658,2.1658,0,0,0,.7959.2116l.037.0015H44.7109a1.5439,1.5439,0,0,0,.8906-.2146,1.1206,1.1206,0,0,0,.3757-.4467,2.1658,2.1658,0,0,0,.2116-.7959l.0015-.037V7.3962a1.5449,1.5449,0,0,0-.2145-.8906A1.12,1.12,0,0,0,45.529,6.13a2.1587,2.1587,0,0,0-.8329-.213H26.9587A1.544,1.544,0,0,0,26.0681,6.1314Z" transform="translate(-1.49)"/><path class="cls-2" d="M48.1652,7.3962a2.8977,2.8977,0,0,1,2.9587-2.9587H68.8761a2.8977,2.8977,0,0,1,2.9587,2.9587v8.8761a2.8977,2.8977,0,0,1-2.9587,2.9587H62.9587a5.1411,5.1411,0,0,0,.37,2.219h1.11a.74.74,0,0,1,0,1.4794H55.5619a.74.74,0,0,1,0-1.4794h1.11a5.1411,5.1411,0,0,0,.37-2.219H51.1239a2.8977,2.8977,0,0,1-2.9587-2.9587Zm2.0681-1.2648a1.1206,1.1206,0,0,0-.3757.4467,2.1606,2.1606,0,0,0-.2131.8329v8.8613a1.5439,1.5439,0,0,0,.2146.8906,1.1174,1.1174,0,0,0,.4467.3757,2.1658,2.1658,0,0,0,.7959.2116l.037.0015H68.8761a1.5439,1.5439,0,0,0,.8906-.2146,1.1206,1.1206,0,0,0,.3757-.4467,2.1658,2.1658,0,0,0,.2116-.7959l.0015-.037V7.3962a1.5439,1.5439,0,0,0-.2146-.8906,1.1191,1.1191,0,0,0-.4467-.3757,2.1587,2.1587,0,0,0-.8329-.213H51.1239A1.544,1.544,0,0,0,50.2333,6.1314Z" transform="translate(-1.49)"/><path class="cls-2" d="M80.85,4.38A4.38,4.38,0,1,1,76.47,0,4.38,4.38,0,0,1,80.85,4.38Zm-7.2992,0a2.92,2.92,0,1,0,2.92-2.92A2.92,2.92,0,0,0,73.5508,4.38Z" transform="translate(-1.49)"/><path class="cls-2" d="M85.23,8.7591h.73a2.92,2.92,0,0,1,2.8948,2.5372l4.54-2.0175a1.46,1.46,0,0,1,2.054,1.3328V21.505a1.46,1.46,0,0,1-2.0526,1.3328L88.8543,20.82A2.92,2.92,0,0,1,85.96,23.3576H75.0106a2.92,2.92,0,0,1-2.92-2.92V11.6788a2.92,2.92,0,0,1,2.92-2.92Zm8.7591,12.7444v-10.89l-5.11,2.27v6.35l5.11,2.2715ZM73.5508,11.6788v8.7591a1.46,1.46,0,0,0,1.46,1.46H85.96a1.46,1.46,0,0,0,1.46-1.46V11.6788a1.46,1.46,0,0,0-1.46-1.46H75.0106A1.46,1.46,0,0,0,73.5508,11.6788Z" transform="translate(-1.49)"/><path class="cls-2" d="M85.23,8.7591a4.38,4.38,0,1,0-4.38-4.38A4.38,4.38,0,0,0,85.23,8.7591ZM82.31,4.38a2.92,2.92,0,1,1,2.92,2.92A2.92,2.92,0,0,1,82.31,4.38Z" transform="translate(-1.49)"/><path class="cls-2" d="M105.003,10.0661a2.25,2.25,0,1,1-2.25-2.25A2.25,2.25,0,0,1,105.003,10.0661Z" transform="translate(-1.49)"/><path class="cls-2" d="M98.25,4.8161A2.25,2.25,0,0,0,96,7.0661v13.5a2.25,2.25,0,0,0,2.25,2.25h19.5a2.25,2.25,0,0,0,2.25-2.25v-13.5a2.25,2.25,0,0,0-2.25-2.25Zm19.5,1.5a.75.75,0,0,1,.75.75v9l-5.6625-2.92a.75.75,0,0,0-.8655.1395l-5.565,5.565-3.99-2.658a.75.75,0,0,0-.945.093l-3.969,3.531v.81q-.0027-.03-.003-.06v-13.5a.75.75,0,0,1,.75-.75Z" transform="translate(-1.49)"/></g></svg>