<svg id="Layer_1" enable-background="new 0 0 509.592 509.592" height="512" viewBox="0 0 509.592 509.592" width="512" xmlns="http://www.w3.org/2000/svg"><path d="m490.409 428.637c-61.286-74.709-167.642-81.576-236.689-14.052-69.074-67.549-175.428-60.626-236.689 14.052-4.84 5.9-4.84 14.396 0 20.296 61.287 74.709 167.641 81.576 236.689 14.052 69.073 67.549 175.428 60.626 236.689-14.052 4.84-5.9 4.84-14.396 0-20.296z" fill="#e88793"/><path d="m263.827 3.597c-5.885-4.796-14.329-4.796-20.214 0-105.137 85.673-105.856 237.043 0 323.3 5.884 4.795 14.329 4.796 20.214 0 105.137-85.672 105.855-237.043 0-323.3z" fill="#fc93a0"/><path d="m126.789 94.457c-7.565-3.049-16.212.081-20.074 7.267-58.55 108.951 12.802 249.46 146.075 303.16 7.575 3.053 16.218-.092 20.074-7.267 58.548-108.951-12.8-249.458-146.075-303.16z" fill="#e88793"/><g fill="#fc93a0"><path d="m400.727 101.724c-3.86-7.185-12.51-10.316-20.073-7.267-134.728 54.286-204.025 195.324-146.076 303.16 3.862 7.186 12.511 10.315 20.074 7.267 134.735-54.291 204.011-195.347 146.075-303.16z"/><path d="m18.705 184.216c-9.344-.34-16.924 7.331-16.582 16.582 2.244 60.513 30.363 122.051 77.147 168.835 50.825 50.826 118.288 77.158 169.429 77.158 9.077 0 16.324-7.545 15.988-16.593-4.694-126.654-118.903-241.27-245.982-245.982z"/><path d="m490.07 172.073c-126.401 11.174-246.104 130.538-257.31 257.31-.874 9.891 7.403 18.223 17.347 17.347 126.403-11.173 246.103-130.527 257.31-257.31.876-9.906-7.413-18.218-17.347-17.347z"/><path d="m239.763 475.209c-27.865 3.979-56.551 9.542-85.819 18.66-64.267 20.022-101.734-52.994-115.421-87.14-7.693 6.558-14.897 13.87-21.492 21.909-4.84 5.9-4.84 14.396 0 20.296 56.785 69.22 153.091 80.882 222.732 26.275z"/><path d="m490.409 448.933c4.84-5.9 4.84-14.396 0-20.296-6.399-7.8-13.373-14.915-20.809-21.322-26.616 22.99-57.633 44.279-85.921 49.881-37.195 7.366-77.452 9.909-119.852 14.899 69.85 58.167 168.79 47.288 226.582-23.162z"/></g><path d="m490.07 172.073c-102.37 9.05-205.012 90.531-243.329 195.817 11.915 13.465 26.048 24.276 42.615 29.319 68.173 20.754 115.801-109.472 148.487-139.034 14.708-13.302 36.791-14.507 57.229-11.866 6.476-18.859 10.673-37.987 12.344-56.89.877-9.905-7.412-18.217-17.346-17.346z" fill="#fda5b7"/><path d="m248.699 446.791c9.077 0 16.324-7.545 15.988-16.593-3.786-102.124-79.472-199.442-180.564-233.682 7.287 11.82 12.85 26.979 14.721 46.394 7.471 77.512-30.805 122.338 34.56 136.347 40.602 8.701 62.705 39.38 77.582 62.944 14.876 3.092 30.751 4.59 37.713 4.59z" fill="#fda5b7"/><path d="m400.727 101.724c-3.86-7.185-12.51-10.316-20.073-7.267-78.321 31.558-144.176 98.074-161.979 179.199 15.091-5.831 28.413-9.85 36.121-8.502 39.397 6.892 78.529-71.215 115.293-117.161 13.314-16.639 25.409-28.381 35.435-36.615-1.493-3.258-3.091-6.478-4.797-9.654z" fill="#fda5b7"/><path d="m126.789 94.457c-7.565-3.049-16.212.081-20.074 7.267-11.574 21.537-18.219 45.052-19.981 69.367 15.492 17.569 32.758 30.908 46.672 25.426 33.751-13.298 8.481 21.993 70.507-5.99 13.488-6.085 21.105-15.677 24.774-26.959-27.676-29.326-62.673-53.305-101.898-69.111z" fill="#fda5b7"/><path d="m318.07 68.56c-13.279-24.37-31.574-46.491-54.243-64.963-5.885-4.796-14.329-4.796-20.214 0-27.503 22.411-48.574 50.187-62.043 80.846 9.336 11.901 22.823 19.75 42.252 16.074 55.235-10.45 28.271-38.356 94.248-31.957z" fill="#fda5b7"/></svg>