<?xml version="1.0" encoding="iso-8859-1"?>
<!-- Generator: Adobe Illustrator 19.0.0, SVG Export Plug-In . SVG Version: 6.00 Build 0)  -->
<svg version="1.1" id="Capa_1" xmlns="http://www.w3.org/2000/svg" xmlns:xlink="http://www.w3.org/1999/xlink" x="0px" y="0px"
	 viewBox="0 0 512.028 512.028" style="enable-background:new 0 0 512.028 512.028;" xml:space="preserve" width="700px" height="200px">
<path style="fill:#D81B60;" d="M468.632,316.203C456.322,283.733,345.602,0,256.002,0S55.682,283.733,43.586,315.733
	C16.024,378.112,7.554,429.525,55.704,477.675c45.819,45.805,120.091,45.805,165.909,0c10.283-10.261,22.165-22.72,34.368-36.629
	c12.203,13.888,24.085,26.325,34.368,36.629c45.819,45.805,120.091,45.805,165.909,0
	C504.45,429.483,495.981,378.069,468.632,316.203z M192.002,277.333c-3.08-32.266,20.579-60.92,52.845-64
	c3.71-0.354,7.445-0.354,11.155,0c32.266-3.08,60.92,20.579,64,52.845c0.354,3.71,0.354,7.445,0,11.155
	c0,33.835-22.763,79.744-64,130.645C214.765,357.077,192.002,311.168,192.002,277.333z M441.218,462.549
	c-37.488,37.477-98.256,37.477-135.744,0c-12.8-12.8-24.64-25.451-35.52-37.952c36.395-44.352,71.381-99.392,71.381-147.264
	c3.447-43.682-29.171-81.887-72.852-85.333c-4.154-0.328-8.327-0.328-12.481,0c-43.682-3.447-81.887,29.171-85.333,72.852
	c-0.328,4.154-0.328,8.327,0,12.481c0,47.872,34.987,102.912,71.403,147.2c-10.837,12.444-22.677,25.095-35.52,37.952
	c-37.488,37.477-98.256,37.477-135.744,0c-35.221-35.2-37.227-71.381-7.509-138.667C107.842,206.933,199.533,21.333,256.002,21.333
	s148.16,185.6,192.917,302.933C478.445,391.168,476.44,427.328,441.218,462.549z"/>
<g>
</g>
<g>
</g>
<g>
</g>
<g>
</g>
<g>
</g>
<g>
</g>
<g>
</g>
<g>
</g>
<g>
</g>
<g>
</g>
<g>
</g>
<g>
</g>
<g>
</g>
<g>
</g>
<g>
</g>
</svg>
