<?xml version="1.0" encoding="iso-8859-1"?>
<!-- Generator: Adobe Illustrator 19.0.0, SVG Export Plug-In . SVG Version: 6.00 Build 0)  -->
<svg version="1.1" id="Capa_1" xmlns="http://www.w3.org/2000/svg" xmlns:xlink="http://www.w3.org/1999/xlink" x="0px" y="0px"
	 viewBox="0 0 512.019 512.019" style="enable-background:new 0 0 512.019 512.019;" xml:space="preserve" width="700px" height="200px">
<path style="fill:#F44336;" d="M64,320.009c-35.346,0-64-28.654-64-64s28.654-64,64-64s64,28.654,64,64
	c0,5.891-4.776,10.667-10.667,10.667H22.677c4.865,18.842,21.863,32.005,41.323,32c27.093,0,34.624-4.096,44.928-17.259
	c3.635-4.636,10.34-5.448,14.976-1.813c4.636,3.635,5.448,10.34,1.813,14.976l0,0C111.391,313.767,87.684,323.535,64,320.009z
	 M22.677,245.343h82.645c-5.891-22.816-29.162-36.537-51.978-30.646c-15.029,3.88-26.766,15.617-30.646,30.646H22.677z"/>
<g>
	<path style="fill:#2196F3;" d="M192,320.009c-35.346,0-64-28.654-64-64s28.654-64,64-64s64,28.654,64,64
		S227.346,320.009,192,320.009z M192,213.343c-23.564,0-42.667,19.103-42.667,42.667s19.103,42.667,42.667,42.667
		s42.667-19.103,42.667-42.667S215.564,213.343,192,213.343z"/>
	<path style="fill:#2196F3;" d="M138.667,320.009c-5.891,0-10.667-4.776-10.667-10.667V160.009c0-5.891,4.776-10.667,10.667-10.667
		s10.667,4.776,10.667,10.667v149.333C149.333,315.234,144.558,320.009,138.667,320.009z"/>
</g>
<g>
	<path style="fill:#FFC107;" d="M373.333,320.009c-5.891,0-10.667-4.776-10.667-10.667v-64c0-21.099-29.867-32-42.667-32
		c-13.28-1.865-26.394,4.361-33.344,15.829c-2.907,5.124-9.418,6.92-14.541,4.013c-5.045-2.863-6.877-9.232-4.125-14.338
		c10.657-18.284,30.934-28.747,52.011-26.837c22.976,0,64,17.813,64,53.333v64C384,315.234,379.224,320.009,373.333,320.009z"/>
	<path style="fill:#FFC107;" d="M309.333,320.009c-46.4,0-53.333-26.731-53.333-42.667c-0.04-7.061,2.867-13.819,8.021-18.645
		c16.192-15.552,53.333-15.445,93.355-13.824c6.272,0.256,11.755,0.469,15.957,0.469c5.891-0.007,10.672,4.764,10.679,10.655
		c0.002,1.885-0.495,3.737-1.441,5.367c1.523,2.634,1.849,5.793,0.896,8.683C371.813,300.706,342.126,320.714,309.333,320.009z
		 M329.045,265.503c-17.207-1.857-34.591,1.097-50.219,8.533c-0.991,0.805-1.544,2.031-1.493,3.307c0,10.539,3.797,21.333,32,21.333
		c22.409,0.733,43.096-11.965,52.587-32.277l-5.397-0.235C349.269,265.908,339.371,265.503,329.045,265.503z"/>
</g>
<g>
	<path style="fill:#4CAF50;" d="M437.333,309.343c-3.568-0.002-6.898-1.787-8.875-4.757l-64-96
		c-3.27-4.901-1.947-11.525,2.955-14.795s11.525-1.947,14.795,2.955l64,96c3.264,4.904,1.934,11.526-2.971,14.79
		c-1.749,1.164-3.803,1.785-5.904,1.786V309.343z"/>
	<path style="fill:#4CAF50;" d="M416,362.676c-5.891,0.01-10.675-4.758-10.685-10.649c-0.003-1.862,0.481-3.692,1.405-5.309
		l85.333-149.333c2.946-5.119,9.483-6.882,14.603-3.936c5.119,2.946,6.882,9.483,3.936,14.603l-85.333,149.333
		C423.339,360.676,419.81,362.692,416,362.676z"/>
</g>
<g>
</g>
<g>
</g>
<g>
</g>
<g>
</g>
<g>
</g>
<g>
</g>
<g>
</g>
<g>
</g>
<g>
</g>
<g>
</g>
<g>
</g>
<g>
</g>
<g>
</g>
<g>
</g>
<g>
</g>
</svg>
