<?xml version="1.0" encoding="iso-8859-1"?>
<!-- Generator: Adobe Illustrator 19.0.0, SVG Export Plug-In . SVG Version: 6.00 Build 0)  -->
<svg version="1.1" id="Capa_1" xmlns="http://www.w3.org/2000/svg" xmlns:xlink="http://www.w3.org/1999/xlink" x="0px" y="0px"
	 viewBox="0 0 512.091 512.091" style="enable-background:new 0 0 512.091 512.091;" xml:space="preserve" width="700px" height="200px">
<path style="fill:#FF5722;" d="M355.163,11.169c-5.636-1.716-11.595,1.461-13.311,7.097c-1.365,4.484,0.357,9.335,4.245,11.954
	c42.453,28.864,68.373,106.155,69.995,166.784c-9.677-18.444-23.368-34.482-40.064-46.933c-4.713-3.535-11.399-2.58-14.933,2.133
	c-2.844,3.793-2.844,9.007,0,12.8c38.504,52.122,27.464,125.588-24.657,164.092c-20.175,14.904-44.595,22.95-69.678,22.959
	c-11.911,0.551-23.809-1.337-34.965-5.547c12.16-5.036,23.758-11.336,34.603-18.795c12.378-9.961,27.27-16.303,43.029-18.325
	c5.891-0.002,10.665-4.779,10.664-10.67c0-0.869-0.107-1.735-0.317-2.578c-5.683-18.369-23.15-30.503-42.347-29.419
	c-10.324-0.452-20.351,3.521-27.563,10.923c-5.739,5.12-11.669,10.411-36.437,10.411c-43.648,0-64-25.451-64-42.667
	c0.663-6.385,4.064-12.168,9.323-15.851c4.735-3.356,9.804-6.216,15.125-8.533c4.234,3.996,10.849,3.996,15.083,0
	c6.06-6.685,8.071-16.106,5.269-24.683l57.088-38.059c4.901-3.268,6.225-9.891,2.957-14.792c-1.973-2.958-5.29-4.739-8.845-4.749
	h-21.333c-23.744,0-39.275-4.608-42.667-12.651c-4.885-11.776,11.2-36.864,28.821-54.464c4.171-4.16,4.18-10.914,0.019-15.085
	c-1.99-1.995-4.689-3.122-7.507-3.134c-28.063,2.521-53.371,17.909-68.523,41.664c-16.073-1.457-32.255-1.214-48.277,0.725
	c-3.422-3.852-6.293-8.16-8.533-12.8c-6.984-12.44-11.511-26.107-13.333-40.256c0.011-5.891-4.757-10.675-10.648-10.686
	c-2.84-0.005-5.565,1.123-7.571,3.134c-23.175,24.369-29.632,60.187-16.427,91.115c-65.779,125.151-17.649,279.931,107.502,345.71
	c36.744,19.313,77.633,29.4,119.143,29.394c143.552,0,256-107.776,256-245.333v-21.333
	C512.091,104.588,431.025,33.932,355.163,11.169z"/>
<g>
</g>
<g>
</g>
<g>
</g>
<g>
</g>
<g>
</g>
<g>
</g>
<g>
</g>
<g>
</g>
<g>
</g>
<g>
</g>
<g>
</g>
<g>
</g>
<g>
</g>
<g>
</g>
<g>
</g>
</svg>
