<svg id="Capa_1" enable-background="new 0 0 512 512" viewBox="0 0 512 512" width="700px" height="200px" xmlns="http://www.w3.org/2000/svg" xmlns:xlink="http://www.w3.org/1999/xlink"><linearGradient id="SVGID_1_" gradientTransform="matrix(1 0 0 -1 0 514)" gradientUnits="userSpaceOnUse" x1="59.658" x2="452.341" y1="454.34" y2="61.657"><stop offset="0" stop-color="#e8ebee"/><stop offset="1" stop-color="#e8ebee" stop-opacity="0"/></linearGradient><clipPath id="SVGID_3_"><path id="SVGID_2_" d="m420.4 503.2c-109.5 11.7-219.3 11.7-328.8 0-43.7-4.7-78.2-39.1-82.8-82.8-11.7-109.5-11.7-219.3 0-328.8 4.7-43.7 39.2-78.2 82.8-82.8 109.5-11.7 219.3-11.7 328.8 0 43.7 4.7 78.2 39.2 82.8 82.8 11.7 109.5 11.7 219.3 0 328.8-4.6 43.7-39.1 78.2-82.8 82.8z"/></clipPath><linearGradient id="SVGID_4_" gradientTransform="matrix(1 0 0 -1 0 514)" gradientUnits="userSpaceOnUse" x1="170.755" x2="534.085" y1="332.525" y2="-30.805"><stop offset="0" stop-color="#b7c1ce"/><stop offset="1" stop-color="#b8c1cf" stop-opacity="0"/></linearGradient><linearGradient id="SVGID_5_" gradientTransform="matrix(1 0 0 -1 0 514)" gradientUnits="userSpaceOnUse" x1="256.005" x2="256.005" y1="97.922" y2="11.421"><stop offset="0" stop-color="#94a1b2" stop-opacity="0"/><stop offset="1" stop-color="#94a1b2"/></linearGradient><linearGradient id="SVGID_6_" gradientTransform="matrix(1 0 0 -1 0 514)" gradientUnits="userSpaceOnUse" x1="244.835" x2="334.09" y1="258.455" y2="169.2"><stop offset="0" stop-color="#f00044"/><stop offset="1" stop-color="#c70038"/></linearGradient><linearGradient id="SVGID_7_" gradientTransform="matrix(1 0 0 -1 0 514)" gradientUnits="userSpaceOnUse" x1="188.044" x2="316.748" y1="349.814" y2="221.11"><stop offset="0" stop-color="#08fff9"/><stop offset="1" stop-color="#07d4cf"/></linearGradient><path d="m420.4 503.2c-109.5 11.7-219.3 11.7-328.8 0-43.7-4.7-78.2-39.1-82.8-82.8-11.7-109.5-11.7-219.3 0-328.8 4.7-43.7 39.2-78.2 82.8-82.8 109.5-11.7 219.3-11.7 328.8 0 43.7 4.7 78.2 39.2 82.8 82.8 11.7 109.5 11.7 219.3 0 328.8-4.6 43.7-39.1 78.2-82.8 82.8z" fill="#fffcf8"/><path d="m402.4 476.2c-97.5 10.4-195.4 10.4-292.9 0-38.8-4.2-69.5-34.9-73.7-73.8-10.4-97.5-10.4-195.4 0-292.9 4.2-38.8 34.9-69.5 73.8-73.7 97.5-10.4 195.4-10.4 292.9 0 38.9 4.2 69.6 34.9 73.8 73.8 10.4 97.5 10.4 195.4 0 292.9-4.3 38.8-35 69.5-73.9 73.7z" fill="url(#SVGID_1_)"/><g><g><path clip-path="url(#SVGID_3_)" d="m595.4 388c-.3 0-291.2-291-291.2-291h-48.9v147.8s-30.8-31-30.8-31c-4.6-.7-9.3-1.1-14.1-1.1-25.1 0-48.6 9.8-66.3 27.5s-27.5 41.3-27.5 66.3 9.8 48.6 27.5 66.3l214.7 214.7c17.6 17.7 41.2 27.5 66.2 27.5 4.8 0 9.5-.4 14.1-1 19.7-3 37.9-12.1 52.2-26.4 17.6-17.6 27.4-41 27.5-65.9l.1-110.7c8.5 6.6 17.8 12 27.7 16.2 15.5 6.5 31.9 9.9 48.8 9.9 0-.1 0-49.1 0-49.1z" fill="url(#SVGID_4_)"/></g></g><path d="m420.4 503.2c-109.5 11.7-219.3 11.7-328.8 0-43.7-4.7-78.2-39.1-82.8-82.8-11.7-109.5-11.7-219.3 0-328.8 4.7-43.7 39.2-78.2 82.8-82.8 109.5-11.7 219.3-11.7 328.8 0 43.7 4.7 78.2 39.2 82.8 82.8 11.7 109.5 11.7 219.3 0 328.8-4.6 43.7-39.1 78.2-82.8 82.8z" fill="url(#SVGID_5_)"/><g><path d="m334.6 157.8c-9.7-12.8-15.5-28.7-15.5-46h-.2v-.1h-13.1c3.7 18.7 14.1 35 28.8 46.1z" fill="#f00044"/><path d="m210.4 261.7c-24.8 0-44.8 20.1-44.8 44.8 0 16.1 8.5 30.3 21.3 38.2-4.2-6.8-6.6-14.9-6.6-23.5 0-24.8 20.1-44.8 44.8-44.8 4.9 0 9.7.8 14.1 2.3v-50.2c-4.6-.7-9.3-1.1-14.1-1.1-.2 0-.4 0-.6 0v36.6c-4.5-1.5-9.2-2.3-14.1-2.3z" fill="#f00044"/><path d="m395.4 188c-5 0-9.9-.5-14.6-1.4v35.7c-16.9 0-33.3-3.3-48.8-9.9-10-4.2-19.2-9.6-27.7-16.2v110.7h-.1c-.1 24.9-9.8 48.3-27.5 65.9-14.3 14.3-32.5 23.5-52.2 26.4-4.6.7-9.3 1-14.1 1-21.6 0-42-7.2-58.6-20.5 2.2 2.7 4.5 5.3 6.9 7.8 17.7 17.8 41.3 27.5 66.3 27.5 4.8 0 9.5-.4 14.1-1 19.7-3 37.9-12.1 52.2-26.4 17.6-17.6 27.4-41 27.5-65.9h.1v-110.8c8.5 6.6 17.8 12 27.7 16.2 15.5 6.6 31.9 9.9 48.8 9.9z" fill="url(#SVGID_6_)"/><path d="m380.7 186.6v-13.3c-17.3 0-33.3-5.8-46.1-15.5 11.1 14.6 27.4 25.1 46.1 28.8z" fill="#08fff9"/><path d="m225 366c4.9 0 9.7-.8 14.1-2.3 17.8-5.9 30.7-22.7 30.7-42.5l.1-74.2v-135.3h35.9c-.9-4.7-1.4-9.6-1.4-14.6h-.2v-.1h-48.9v135.4l-.1 74.2c0 19.8-12.9 36.6-30.7 42.5-4.4 1.5-9.2 2.3-14.1 2.3-8.6 0-16.7-2.4-23.5-6.6 7.9 12.7 22 21.2 38.1 21.2z" fill="url(#SVGID_7_)"/><path d="m158.7 254.9c17.6-17.6 40.9-27.3 65.7-27.5v-13.6c-4.6-.7-9.3-1.1-14.1-1.1-25.1 0-48.6 9.8-66.3 27.5s-27.5 41.3-27.5 66.3 9.8 48.6 27.5 66.3c2.5 2.5 5.1 4.8 7.8 6.9-13.3-16.6-20.5-37-20.5-58.6 0-24.9 9.7-48.5 27.4-66.2z" fill="#08fff9"/><path d="m224.4 399.3c19.7-3 37.9-12.1 52.2-26.4 17.6-17.6 27.4-41 27.5-65.9h.1v-110.8c8.5 6.6 17.8 12 27.7 16.2 15.5 6.6 31.9 9.9 48.8 9.9v-35.7c-18.7-3.6-35-14.1-46.2-28.8-14.6-11.1-25.1-27.4-28.8-46.1h-35.9v135.4l-.1 74.2c0 19.8-12.9 36.6-30.7 42.5-4.4 1.5-9.2 2.3-14.1 2.3-16.1 0-30.3-8.5-38.2-21.3-12.8-7.9-21.3-22-21.3-38.2 0-24.8 20.1-44.8 44.8-44.8 4.9 0 9.7.8 14.1 2.3v-36.5c-24.8.1-48.1 9.9-65.7 27.5-17.7 17.7-27.5 41.3-27.5 66.3 0 21.5 7.2 42 20.5 58.6 16.6 13.3 37 20.5 58.6 20.5 4.9-.2 9.6-.5 14.2-1.2z"/></g></svg>